<svg xmlns="http://www.w3.org/2000/svg" viewBox="0 0 760 312" font-family="system-ui, sans-serif" font-size="12">
<rect width="760" height="312" fill="#fff"/>
<text x="88" y="67" text-anchor="end" fill="#333">market (trading)</text>
<rect x="96.0" y="52" width="9.6" height="22" fill="#2f7d4f"/>
<rect x="105.6" y="52" width="9.6" height="22" fill="#2f7d4f"/>
<rect x="115.2" y="52" width="9.6" height="22" fill="#2f7d4f"/>
<rect x="124.8" y="52" width="8.0" height="22" fill="#2f7d4f"/>
<rect x="132.8" y="52" width="9.6" height="22" fill="#2f7d4f"/>
<rect x="142.3" y="52" width="9.6" height="22" fill="#2f7d4f"/>
<rect x="151.9" y="52" width="9.6" height="22" fill="#2f7d4f"/>
<rect x="161.5" y="52" width="8.0" height="22" fill="#2f7d4f"/>
<rect x="169.5" y="52" width="9.6" height="22" fill="#2f7d4f"/>
<rect x="179.1" y="52" width="9.6" height="22" fill="#2f7d4f"/>
<rect x="188.7" y="52" width="9.6" height="22" fill="#2f7d4f"/>
<rect x="198.3" y="52" width="8.0" height="22" fill="#2f7d4f"/>
<rect x="206.3" y="52" width="9.6" height="22" fill="#2f7d4f"/>
<rect x="215.9" y="52" width="9.6" height="22" fill="#2f7d4f"/>
<rect x="225.4" y="52" width="8.0" height="22" fill="#2f7d4f"/>
<rect x="233.4" y="52" width="9.6" height="22" fill="#2f7d4f"/>
<rect x="243.0" y="52" width="86.3" height="22" fill="#4b5563"/>
<rect x="329.3" y="52" width="84.7" height="22" fill="#4b5563"/>
<rect x="414.0" y="52" width="68.7" height="22" fill="#4b5563"/>
<rect x="482.7" y="52" width="9.6" height="22" fill="#2f7d4f"/>
<rect x="492.3" y="52" width="9.6" height="22" fill="#2f7d4f"/>
<rect x="501.9" y="52" width="9.6" height="22" fill="#2f7d4f"/>
<rect x="511.5" y="52" width="9.6" height="22" fill="#2f7d4f"/>
<rect x="521.1" y="52" width="8.0" height="22" fill="#2f7d4f"/>
<rect x="529.1" y="52" width="9.6" height="22" fill="#2f7d4f"/>
<rect x="538.7" y="52" width="12.8" height="22" fill="#2f7d4f"/>
<rect x="551.4" y="52" width="9.6" height="22" fill="#2f7d4f"/>
<rect x="561.0" y="52" width="9.6" height="22" fill="#2f7d4f"/>
<rect x="570.6" y="52" width="9.6" height="22" fill="#2f7d4f"/>
<rect x="580.2" y="52" width="9.6" height="22" fill="#2f7d4f"/>
<rect x="589.8" y="52" width="9.6" height="22" fill="#2f7d4f"/>
<rect x="599.4" y="52" width="11.2" height="22" fill="#2f7d4f"/>
<rect x="610.6" y="52" width="9.6" height="22" fill="#2f7d4f"/>
<rect x="620.1" y="52" width="9.6" height="22" fill="#2f7d4f"/>
<rect x="629.7" y="52" width="11.2" height="22" fill="#2f7d4f"/>
<rect x="640.9" y="52" width="9.6" height="22" fill="#2f7d4f"/>
<rect x="650.5" y="52" width="9.6" height="22" fill="#2f7d4f"/>
<rect x="660.1" y="52" width="9.6" height="22" fill="#2f7d4f"/>
<rect x="669.7" y="52" width="9.6" height="22" fill="#2f7d4f"/>
<rect x="679.3" y="52" width="11.2" height="22" fill="#2f7d4f"/>
<rect x="690.5" y="52" width="9.6" height="22" fill="#2f7d4f"/>
<rect x="700.0" y="52" width="9.6" height="22" fill="#2f7d4f"/>
<rect x="709.6" y="52" width="20.8" height="22" fill="#2f7d4f"/>
<rect x="730.4" y="52" width="9.6" height="22" fill="#2f7d4f"/>
<text x="88" y="95" text-anchor="end" fill="#333">orders (trading)</text>
<rect x="96.0" y="80" width="9.6" height="22" fill="#2f7d4f"/>
<rect x="105.6" y="80" width="9.6" height="22" fill="#2f7d4f"/>
<rect x="115.2" y="80" width="9.6" height="22" fill="#2f7d4f"/>
<rect x="124.8" y="80" width="8.0" height="22" fill="#2f7d4f"/>
<rect x="132.8" y="80" width="9.6" height="22" fill="#2f7d4f"/>
<rect x="142.3" y="80" width="9.6" height="22" fill="#2f7d4f"/>
<rect x="151.9" y="80" width="9.6" height="22" fill="#2f7d4f"/>
<rect x="161.5" y="80" width="8.0" height="22" fill="#2f7d4f"/>
<rect x="169.5" y="80" width="9.6" height="22" fill="#2f7d4f"/>
<rect x="179.1" y="80" width="9.6" height="22" fill="#2f7d4f"/>
<rect x="188.7" y="80" width="9.6" height="22" fill="#2f7d4f"/>
<rect x="198.3" y="80" width="8.0" height="22" fill="#2f7d4f"/>
<rect x="206.3" y="80" width="9.6" height="22" fill="#2f7d4f"/>
<rect x="215.9" y="80" width="9.6" height="22" fill="#2f7d4f"/>
<rect x="225.4" y="80" width="8.0" height="22" fill="#2f7d4f"/>
<rect x="233.4" y="80" width="9.6" height="22" fill="#2f7d4f"/>
<rect x="243.0" y="80" width="86.3" height="22" fill="#4b5563"/>
<rect x="329.3" y="80" width="84.7" height="22" fill="#4b5563"/>
<rect x="414.0" y="80" width="68.7" height="22" fill="#4b5563"/>
<rect x="482.7" y="80" width="9.6" height="22" fill="#2f7d4f"/>
<rect x="492.3" y="80" width="9.6" height="22" fill="#2f7d4f"/>
<rect x="501.9" y="80" width="9.6" height="22" fill="#2f7d4f"/>
<rect x="511.5" y="80" width="9.6" height="22" fill="#2f7d4f"/>
<rect x="521.1" y="80" width="8.0" height="22" fill="#2f7d4f"/>
<rect x="529.1" y="80" width="9.6" height="22" fill="#2f7d4f"/>
<rect x="538.7" y="80" width="12.8" height="22" fill="#2f7d4f"/>
<rect x="551.4" y="80" width="9.6" height="22" fill="#2f7d4f"/>
<rect x="561.0" y="80" width="9.6" height="22" fill="#2f7d4f"/>
<rect x="570.6" y="80" width="9.6" height="22" fill="#2f7d4f"/>
<rect x="580.2" y="80" width="9.6" height="22" fill="#2f7d4f"/>
<rect x="589.8" y="80" width="9.6" height="22" fill="#2f7d4f"/>
<rect x="599.4" y="80" width="11.2" height="22" fill="#2f7d4f"/>
<rect x="610.6" y="80" width="9.6" height="22" fill="#2f7d4f"/>
<rect x="620.1" y="80" width="9.6" height="22" fill="#2f7d4f"/>
<rect x="629.7" y="80" width="11.2" height="22" fill="#2f7d4f"/>
<rect x="640.9" y="80" width="9.6" height="22" fill="#2f7d4f"/>
<rect x="650.5" y="80" width="9.6" height="22" fill="#2f7d4f"/>
<rect x="660.1" y="80" width="9.6" height="22" fill="#2f7d4f"/>
<rect x="669.7" y="80" width="9.6" height="22" fill="#2f7d4f"/>
<rect x="679.3" y="80" width="11.2" height="22" fill="#2f7d4f"/>
<rect x="690.5" y="80" width="9.6" height="22" fill="#2f7d4f"/>
<rect x="700.0" y="80" width="9.6" height="22" fill="#2f7d4f"/>
<rect x="709.6" y="80" width="20.8" height="22" fill="#2f7d4f"/>
<rect x="730.4" y="80" width="9.6" height="22" fill="#2f7d4f"/>
<text x="88" y="123" text-anchor="end" fill="#333">funds (trading)</text>
<rect x="96.0" y="108" width="9.6" height="22" fill="#2f7d4f"/>
<rect x="105.6" y="108" width="9.6" height="22" fill="#2f7d4f"/>
<rect x="115.2" y="108" width="9.6" height="22" fill="#2f7d4f"/>
<rect x="124.8" y="108" width="8.0" height="22" fill="#2f7d4f"/>
<rect x="132.8" y="108" width="9.6" height="22" fill="#2f7d4f"/>
<rect x="142.3" y="108" width="9.6" height="22" fill="#2f7d4f"/>
<rect x="151.9" y="108" width="9.6" height="22" fill="#2f7d4f"/>
<rect x="161.5" y="108" width="8.0" height="22" fill="#2f7d4f"/>
<rect x="169.5" y="108" width="9.6" height="22" fill="#2f7d4f"/>
<rect x="179.1" y="108" width="9.6" height="22" fill="#2f7d4f"/>
<rect x="188.7" y="108" width="9.6" height="22" fill="#2f7d4f"/>
<rect x="198.3" y="108" width="8.0" height="22" fill="#2f7d4f"/>
<rect x="206.3" y="108" width="9.6" height="22" fill="#2f7d4f"/>
<rect x="215.9" y="108" width="9.6" height="22" fill="#2f7d4f"/>
<rect x="225.4" y="108" width="8.0" height="22" fill="#2f7d4f"/>
<rect x="233.4" y="108" width="9.6" height="22" fill="#2f7d4f"/>
<rect x="243.0" y="108" width="86.3" height="22" fill="#4b5563"/>
<rect x="329.3" y="108" width="84.7" height="22" fill="#4b5563"/>
<rect x="414.0" y="108" width="68.7" height="22" fill="#4b5563"/>
<rect x="482.7" y="108" width="9.6" height="22" fill="#2f7d4f"/>
<rect x="492.3" y="108" width="9.6" height="22" fill="#2f7d4f"/>
<rect x="501.9" y="108" width="9.6" height="22" fill="#2f7d4f"/>
<rect x="511.5" y="108" width="9.6" height="22" fill="#2f7d4f"/>
<rect x="521.1" y="108" width="8.0" height="22" fill="#2f7d4f"/>
<rect x="529.1" y="108" width="9.6" height="22" fill="#2f7d4f"/>
<rect x="538.7" y="108" width="12.8" height="22" fill="#2f7d4f"/>
<rect x="551.4" y="108" width="9.6" height="22" fill="#2f7d4f"/>
<rect x="561.0" y="108" width="9.6" height="22" fill="#2f7d4f"/>
<rect x="570.6" y="108" width="9.6" height="22" fill="#2f7d4f"/>
<rect x="580.2" y="108" width="9.6" height="22" fill="#2f7d4f"/>
<rect x="589.8" y="108" width="9.6" height="22" fill="#2f7d4f"/>
<rect x="599.4" y="108" width="11.2" height="22" fill="#2f7d4f"/>
<rect x="610.6" y="108" width="9.6" height="22" fill="#2f7d4f"/>
<rect x="620.1" y="108" width="9.6" height="22" fill="#2f7d4f"/>
<rect x="629.7" y="108" width="11.2" height="22" fill="#2f7d4f"/>
<rect x="640.9" y="108" width="9.6" height="22" fill="#2f7d4f"/>
<rect x="650.5" y="108" width="9.6" height="22" fill="#2f7d4f"/>
<rect x="660.1" y="108" width="9.6" height="22" fill="#2f7d4f"/>
<rect x="669.7" y="108" width="9.6" height="22" fill="#2f7d4f"/>
<rect x="679.3" y="108" width="11.2" height="22" fill="#2f7d4f"/>
<rect x="690.5" y="108" width="9.6" height="22" fill="#2f7d4f"/>
<rect x="700.0" y="108" width="9.6" height="22" fill="#2f7d4f"/>
<rect x="709.6" y="108" width="20.8" height="22" fill="#2f7d4f"/>
<rect x="730.4" y="108" width="9.6" height="22" fill="#2f7d4f"/>
<text x="88" y="151" text-anchor="end" fill="#333">bank (street)</text>
<rect x="96.0" y="136" width="9.6" height="22" fill="#2f7d4f"/>
<rect x="105.6" y="136" width="9.6" height="22" fill="#2f7d4f"/>
<rect x="115.2" y="136" width="9.6" height="22" fill="#2f7d4f"/>
<rect x="124.8" y="136" width="8.0" height="22" fill="#2f7d4f"/>
<rect x="132.8" y="136" width="9.6" height="22" fill="#2f7d4f"/>
<rect x="142.3" y="136" width="9.6" height="22" fill="#2f7d4f"/>
<rect x="151.9" y="136" width="9.6" height="22" fill="#2f7d4f"/>
<rect x="161.5" y="136" width="8.0" height="22" fill="#2f7d4f"/>
<rect x="169.5" y="136" width="9.6" height="22" fill="#2f7d4f"/>
<rect x="179.1" y="136" width="9.6" height="22" fill="#2f7d4f"/>
<rect x="188.7" y="136" width="9.6" height="22" fill="#2f7d4f"/>
<rect x="198.3" y="136" width="8.0" height="22" fill="#2f7d4f"/>
<rect x="206.3" y="136" width="9.6" height="22" fill="#2f7d4f"/>
<rect x="215.9" y="136" width="9.6" height="22" fill="#2f7d4f"/>
<rect x="225.4" y="136" width="8.0" height="22" fill="#2f7d4f"/>
<rect x="233.4" y="136" width="9.6" height="22" fill="#2f7d4f"/>
<rect x="243.0" y="136" width="86.3" height="22" fill="#4b5563"/>
<rect x="329.3" y="136" width="84.7" height="22" fill="#4b5563"/>
<rect x="414.0" y="136" width="68.7" height="22" fill="#4b5563"/>
<rect x="482.7" y="136" width="9.6" height="22" fill="#2f7d4f"/>
<rect x="492.3" y="136" width="9.6" height="22" fill="#2f7d4f"/>
<rect x="501.9" y="136" width="9.6" height="22" fill="#2f7d4f"/>
<rect x="511.5" y="136" width="9.6" height="22" fill="#2f7d4f"/>
<rect x="521.1" y="136" width="8.0" height="22" fill="#2f7d4f"/>
<rect x="529.1" y="136" width="9.6" height="22" fill="#2f7d4f"/>
<rect x="538.7" y="136" width="12.8" height="22" fill="#2f7d4f"/>
<rect x="551.4" y="136" width="9.6" height="22" fill="#2f7d4f"/>
<rect x="561.0" y="136" width="9.6" height="22" fill="#2f7d4f"/>
<rect x="570.6" y="136" width="9.6" height="22" fill="#2f7d4f"/>
<rect x="580.2" y="136" width="9.6" height="22" fill="#2f7d4f"/>
<rect x="589.8" y="136" width="9.6" height="22" fill="#2f7d4f"/>
<rect x="599.4" y="136" width="11.2" height="22" fill="#2f7d4f"/>
<rect x="610.6" y="136" width="9.6" height="22" fill="#2f7d4f"/>
<rect x="620.1" y="136" width="9.6" height="22" fill="#2f7d4f"/>
<rect x="629.7" y="136" width="11.2" height="22" fill="#2f7d4f"/>
<rect x="640.9" y="136" width="9.6" height="22" fill="#2f7d4f"/>
<rect x="650.5" y="136" width="9.6" height="22" fill="#2f7d4f"/>
<rect x="660.1" y="136" width="9.6" height="22" fill="#2f7d4f"/>
<rect x="669.7" y="136" width="9.6" height="22" fill="#2f7d4f"/>
<rect x="679.3" y="136" width="11.2" height="22" fill="#2f7d4f"/>
<rect x="690.5" y="136" width="9.6" height="22" fill="#2f7d4f"/>
<rect x="700.0" y="136" width="9.6" height="22" fill="#2f7d4f"/>
<rect x="709.6" y="136" width="20.8" height="22" fill="#2f7d4f"/>
<rect x="730.4" y="136" width="9.6" height="22" fill="#2f7d4f"/>
<text x="88" y="179" text-anchor="end" fill="#333">cell B (laptop)</text>
<rect x="96.0" y="164" width="9.6" height="22" fill="#2f7d4f"/>
<rect x="105.6" y="164" width="9.6" height="22" fill="#2f7d4f"/>
<rect x="115.2" y="164" width="9.6" height="22" fill="#2f7d4f"/>
<rect x="124.8" y="164" width="8.0" height="22" fill="#2f7d4f"/>
<rect x="132.8" y="164" width="9.6" height="22" fill="#2f7d4f"/>
<rect x="142.3" y="164" width="9.6" height="22" fill="#2f7d4f"/>
<rect x="151.9" y="164" width="9.6" height="22" fill="#2f7d4f"/>
<rect x="161.5" y="164" width="8.0" height="22" fill="#2f7d4f"/>
<rect x="169.5" y="164" width="9.6" height="22" fill="#2f7d4f"/>
<rect x="179.1" y="164" width="9.6" height="22" fill="#2f7d4f"/>
<rect x="188.7" y="164" width="9.6" height="22" fill="#2f7d4f"/>
<rect x="198.3" y="164" width="8.0" height="22" fill="#2f7d4f"/>
<rect x="206.3" y="164" width="9.6" height="22" fill="#2f7d4f"/>
<rect x="215.9" y="164" width="9.6" height="22" fill="#2f7d4f"/>
<rect x="225.4" y="164" width="8.0" height="22" fill="#2f7d4f"/>
<rect x="233.4" y="164" width="9.6" height="22" fill="#2f7d4f"/>
<rect x="243.0" y="164" width="86.3" height="22" fill="#2f7d4f"/>
<rect x="329.3" y="164" width="84.7" height="22" fill="#2f7d4f"/>
<rect x="414.0" y="164" width="68.7" height="22" fill="#2f7d4f"/>
<rect x="482.7" y="164" width="9.6" height="22" fill="#2f7d4f"/>
<rect x="492.3" y="164" width="9.6" height="22" fill="#2f7d4f"/>
<rect x="501.9" y="164" width="9.6" height="22" fill="#2f7d4f"/>
<rect x="511.5" y="164" width="9.6" height="22" fill="#2f7d4f"/>
<rect x="521.1" y="164" width="8.0" height="22" fill="#2f7d4f"/>
<rect x="529.1" y="164" width="9.6" height="22" fill="#2f7d4f"/>
<rect x="538.7" y="164" width="12.8" height="22" fill="#1d4ed8"/>
<rect x="551.4" y="164" width="9.6" height="22" fill="#1d4ed8"/>
<rect x="561.0" y="164" width="9.6" height="22" fill="#1d4ed8"/>
<rect x="570.6" y="164" width="9.6" height="22" fill="#1d4ed8"/>
<rect x="580.2" y="164" width="9.6" height="22" fill="#1d4ed8"/>
<rect x="589.8" y="164" width="9.6" height="22" fill="#1d4ed8"/>
<rect x="599.4" y="164" width="11.2" height="22" fill="#1d4ed8"/>
<rect x="610.6" y="164" width="9.6" height="22" fill="#1d4ed8"/>
<rect x="620.1" y="164" width="9.6" height="22" fill="#1d4ed8"/>
<rect x="629.7" y="164" width="11.2" height="22" fill="#1d4ed8"/>
<rect x="640.9" y="164" width="9.6" height="22" fill="#1d4ed8"/>
<rect x="650.5" y="164" width="9.6" height="22" fill="#1d4ed8"/>
<rect x="660.1" y="164" width="9.6" height="22" fill="#1d4ed8"/>
<rect x="669.7" y="164" width="9.6" height="22" fill="#1d4ed8"/>
<rect x="679.3" y="164" width="11.2" height="22" fill="#1d4ed8"/>
<rect x="690.5" y="164" width="9.6" height="22" fill="#1d4ed8"/>
<rect x="700.0" y="164" width="9.6" height="22" fill="#1d4ed8"/>
<rect x="709.6" y="164" width="20.8" height="22" fill="#1d4ed8"/>
<rect x="730.4" y="164" width="9.6" height="22" fill="#1d4ed8"/>
<text x="88" y="207" text-anchor="end" fill="#333">cell A (phone)</text>
<rect x="96.0" y="192" width="9.6" height="22" fill="#2f7d4f"/>
<rect x="105.6" y="192" width="9.6" height="22" fill="#2f7d4f"/>
<rect x="115.2" y="192" width="9.6" height="22" fill="#2f7d4f"/>
<rect x="124.8" y="192" width="8.0" height="22" fill="#2f7d4f"/>
<rect x="132.8" y="192" width="9.6" height="22" fill="#2f7d4f"/>
<rect x="142.3" y="192" width="9.6" height="22" fill="#2f7d4f"/>
<rect x="151.9" y="192" width="9.6" height="22" fill="#2f7d4f"/>
<rect x="161.5" y="192" width="8.0" height="22" fill="#2f7d4f"/>
<rect x="169.5" y="192" width="9.6" height="22" fill="#2f7d4f"/>
<rect x="179.1" y="192" width="9.6" height="22" fill="#2f7d4f"/>
<rect x="188.7" y="192" width="9.6" height="22" fill="#2f7d4f"/>
<rect x="198.3" y="192" width="8.0" height="22" fill="#2f7d4f"/>
<rect x="206.3" y="192" width="9.6" height="22" fill="#2f7d4f"/>
<rect x="215.9" y="192" width="9.6" height="22" fill="#2f7d4f"/>
<rect x="225.4" y="192" width="8.0" height="22" fill="#2f7d4f"/>
<rect x="233.4" y="192" width="9.6" height="22" fill="#2f7d4f"/>
<rect x="243.0" y="192" width="86.3" height="22" fill="#4b5563"/>
<rect x="329.3" y="192" width="84.7" height="22" fill="#4b5563"/>
<rect x="414.0" y="192" width="68.7" height="22" fill="#4b5563"/>
<rect x="482.7" y="192" width="9.6" height="22" fill="#b4432f"/>
<rect x="492.3" y="192" width="9.6" height="22" fill="#b4432f"/>
<rect x="501.9" y="192" width="9.6" height="22" fill="#b4432f"/>
<rect x="511.5" y="192" width="9.6" height="22" fill="#b4432f"/>
<rect x="521.1" y="192" width="8.0" height="22" fill="#b4432f"/>
<rect x="529.1" y="192" width="9.6" height="22" fill="#b4432f"/>
<rect x="538.7" y="192" width="12.8" height="22" fill="#7c3aed"/>
<rect x="551.4" y="192" width="9.6" height="22" fill="#7c3aed"/>
<rect x="561.0" y="192" width="9.6" height="22" fill="#7c3aed"/>
<rect x="570.6" y="192" width="9.6" height="22" fill="#7c3aed"/>
<rect x="580.2" y="192" width="9.6" height="22" fill="#7c3aed"/>
<rect x="589.8" y="192" width="9.6" height="22" fill="#7c3aed"/>
<rect x="599.4" y="192" width="11.2" height="22" fill="#7c3aed"/>
<rect x="610.6" y="192" width="9.6" height="22" fill="#7c3aed"/>
<rect x="620.1" y="192" width="9.6" height="22" fill="#7c3aed"/>
<rect x="629.7" y="192" width="11.2" height="22" fill="#7c3aed"/>
<rect x="640.9" y="192" width="9.6" height="22" fill="#7c3aed"/>
<rect x="650.5" y="192" width="9.6" height="22" fill="#7c3aed"/>
<rect x="660.1" y="192" width="9.6" height="22" fill="#7c3aed"/>
<rect x="669.7" y="192" width="9.6" height="22" fill="#7c3aed"/>
<rect x="679.3" y="192" width="11.2" height="22" fill="#7c3aed"/>
<rect x="690.5" y="192" width="9.6" height="22" fill="#7c3aed"/>
<rect x="700.0" y="192" width="9.6" height="22" fill="#7c3aed"/>
<rect x="709.6" y="192" width="20.8" height="22" fill="#7c3aed"/>
<rect x="730.4" y="192" width="9.6" height="22" fill="#7c3aed"/>
<line x1="143.9" x2="143.9" y1="48" y2="220" stroke="#d1d5db" stroke-dasharray="2 3"/>
<text x="143.9" y="234" text-anchor="middle" fill="#555">-1 min</text>
<line x1="239.8" x2="239.8" y1="48" y2="220" stroke="#d1d5db" stroke-dasharray="2 3"/>
<text x="239.8" y="234" text-anchor="middle" fill="#555">fault</text>
<line x1="335.7" x2="335.7" y1="48" y2="220" stroke="#d1d5db" stroke-dasharray="2 3"/>
<text x="335.7" y="234" text-anchor="middle" fill="#555">1 min</text>
<line x1="431.6" x2="431.6" y1="48" y2="220" stroke="#d1d5db" stroke-dasharray="2 3"/>
<text x="431.6" y="234" text-anchor="middle" fill="#555">2 min</text>
<line x1="527.5" x2="527.5" y1="48" y2="220" stroke="#d1d5db" stroke-dasharray="2 3"/>
<text x="527.5" y="234" text-anchor="middle" fill="#555">3 min</text>
<line x1="623.3" x2="623.3" y1="48" y2="220" stroke="#d1d5db" stroke-dasharray="2 3"/>
<text x="623.3" y="234" text-anchor="middle" fill="#555">4 min</text>
<line x1="719.2" x2="719.2" y1="48" y2="220" stroke="#d1d5db" stroke-dasharray="2 3"/>
<text x="719.2" y="234" text-anchor="middle" fill="#555">5 min</text>
<line x1="482.7" x2="482.7" y1="48" y2="220" stroke="#141833" stroke-width="1.5"/>
<text x="486.7" y="42" text-anchor="start" fill="#141833" font-weight="600">phone answers again</text>
<line x1="538.7" x2="538.7" y1="48" y2="220" stroke="#141833" stroke-width="1.5"/>
<text x="542.7" y="28" text-anchor="start" fill="#141833" font-weight="600">laptop holds it</text>
<rect x="96" y="266" width="12" height="12" fill="#2f7d4f"/><text x="113" y="276" fill="#333">200 / NORMAL</text>
<rect x="208.2" y="266" width="12" height="12" fill="#c2410c"/><text x="225.2" y="276" fill="#333">503 (host down)</text>
<rect x="340.2" y="266" width="12" height="12" fill="#d4a017"/><text x="357.2" y="276" fill="#333">sick</text>
<rect x="399.59999999999997" y="266" width="12" height="12" fill="#b4432f"/><text x="416.59999999999997" y="276" fill="#333">fenced</text>
<rect x="472.19999999999993" y="266" width="12" height="12" fill="#1d4ed8"/><text x="489.19999999999993" y="276" fill="#333">holding</text>
<rect x="551.3999999999999" y="266" width="12" height="12" fill="#7c3aed"/><text x="568.3999999999999" y="276" fill="#333">taken over</text>
<rect x="96" y="286" width="12" height="12" fill="#4b5563"/><text x="113" y="296" fill="#333">no answer</text>
<rect x="188.4" y="286" width="12" height="12" fill="#9ca3af"/><text x="205.4" y="296" fill="#333">401: test token lapsed</text>
</svg>